PathFileType	4	(X/Y/Z)	C:\Users\Biomechanik\SynologyDrive\AlexP\Athlete_03\Athlete_3_25_03_31\Walking_03\marker_experimental.trc
DataRate	CameraRate	NumFrames	NumMarkers	Units	OrigDataRate	OrigDataStartFrame	OrigNumFrames
200.000000	200.000000	4	53	mm	200.000000	30	246
Frame#	Time	GLAB			RFHD			LFHD			C7			T6			SPINMOL			SPINM2			SPINM3			T12			BELTOL			BELT2			BELT3			SACROL			SACR2			SACR3			LTHOL			LTH2			LTH3			LSHAOL			LSHA2			LSHA3			LHEE			LTOE			LM5			RTHOL			RTH2			RTH3			RSHAOL			RSHA2			RSHA3			RHEE			RTOE			RM5			STRN			XIPH			LACR			LUAOL			LUA2			LUA3			LLAOL			LLA2			LLA3			LWRR			LWRU			RACR			RUAOL			RUA2			RUA3			RLAOL			RLA2			RLA3			RWRR			RWRU			
		X1	Y1	Z1	X2	Y2	Z2	X3	Y3	Z3	X4	Y4	Z4	X5	Y5	Z5	X6	Y6	Z6	X7	Y7	Z7	X8	Y8	Z8	X9	Y9	Z9	X10	Y10	Z10	X11	Y11	Z11	X12	Y12	Z12	X13	Y13	Z13	X14	Y14	Z14	X15	Y15	Z15	X16	Y16	Z16	X17	Y17	Z17	X18	Y18	Z18	X19	Y19	Z19	X20	Y20	Z20	X21	Y21	Z21	X22	Y22	Z22	X23	Y23	Z23	X24	Y24	Z24	X25	Y25	Z25	X26	Y26	Z26	X27	Y27	Z27	X28	Y28	Z28	X29	Y29	Z29	X30	Y30	Z30	X31	Y31	Z31	X32	Y32	Z32	X33	Y33	Z33	X34	Y34	Z34	X35	Y35	Z35	X36	Y36	Z36	X37	Y37	Z37	X38	Y38	Z38	X39	Y39	Z39	X40	Y40	Z40	X41	Y41	Z41	X42	Y42	Z42	X43	Y43	Z43	X44	Y44	Z44	X45	Y45	Z45	X46	Y46	Z46	X47	Y47	Z47	X48	Y48	Z48	X49	Y49	Z49	X50	Y50	Z50	X51	Y51	Z51	X52	Y52	Z52	X53	Y53	Z53	

31	0.15	-289.8938598632814	1569.345458984375	244.643814086914	-341.4041442871095	1592.786010742188	308.9572448730468	-332.4604797363283	1595.019775390625	171.7998504638671	-518.2809448242189	1410.498046875	225.2334899902343	-577.7225952148439	1242.236328125	213.4338836669921	-586.1804809570314	1202.343872070312	190.7784118652343	-591.0325927734376	1193.693603515625	240.3231201171874	-581.4644775390626	1137.902587890625	205.2508087158202	-556.7073974609376	1071.909423828125	206.3374481201171	-588.3912963867189	1037.707153320312	192.428009033203	-586.8193359375001	1035.127319335938	242.8213653564452	-592.9117431640626	975.3807373046875	213.4520416259764	-582.2138061523438	926.7122802734375	196.4901428222655	-574.3005981445312	924.0689086914062	247.184356689453	-590.5511474609375	865.3564453125	221.0938568115233	-544.5543212890625	659.9462890625	22.09660339355459	-596.0778198242188	614.728759765625	63.78484344482411	-556.8109741210938	601.7445068359375	36.50411605834951	-686.3660278320312	366.3085021972656	24.56360816955554	-761.4697875976562	350.8508605957031	45.07489776611314	-723.0538940429688	318.5159301757812	37.20306777954088	-880.0628051757812	231.9046783447265	137.3030700683592	-797.2478637695312	45.68069076538081	146.6140899658202	-832.3017578125	56.39547348022456	44.66751480102523	-400.122528076172	655.7509155273438	398.2181701660156	-324.8469543457032	629.4696044921875	403.9326171874999	-367.1189880371095	605.0899047851562	389.3758239746093	-300.1272277832032	327.1006164550781	392.0919799804687	-252.7354888916017	264.8459777832031	388.0381469726562	-301.1302185058594	266.6473083496094	378.9327697753906	-298.1033630371094	53.67583847045896	275.6195678710937	-85.86245727539068	56.71387863159179	277.3016662597656	-132.4192810058594	36.76963424682616	378.0833740234375	-346.7564392089845	1307.596801757812	226.6567077636718	-329.4026184082032	1165.492919921875	218.0568389892578	-434.5171813964844	1381.864379882812	54.5511169433593	-418.7410583496094	1239.009399414062	-54.45054626464852	-422.2498168945313	1178.510986328125	-80.2533264160157	-379.0038452148438	1186.636474609375	-55.12972640991218	-316.9592895507813	998.5725708007812	-111.1124877929688	-314.2921447753907	920.9067993164062	-96.22903442382818	-276.5479431152344	953.1259155273438	-104.3185195922852	-200.9585571289063	882.4154663085938	-92.62563323974614	-179.1293487548829	912.8360595703125	-22.72982025146488	-440.9660949707032	1355.720825195312	394.5850524902343	-481.0208435058595	1207.206176757812	484.9261169433593	-466.5387573242189	1143.672485351562	495.7926940917968	-516.963073730469	1153.800048828125	501.7066650390624	-514.9227294921877	934.2176513671875	536.8735351562499	-473.1463928222658	878.2562866210938	574.3634033203124	-510.6943969726564	871.3563232421875	542.8748779296874	-485.5209350585939	787.5123291015625	565.4010620117186	-437.8270263671877	766.9857177734375	502.3372802734374	
32	0.155	-282.8145446777345	1570.187377929688	245.7576293945312	-334.2795715332033	1593.62548828125	310.1037902832031	-325.4266052246095	1595.842651367188	172.9402313232421	-511.1923217773439	1411.207397460938	226.4215087890624	-570.4498901367189	1242.88525390625	214.3181152343749	-578.8587646484376	1203.0322265625	191.5944519042968	-583.7048950195314	1194.308227539062	241.1303253173827	-574.1130371093751	1138.569702148438	205.9780883789061	-549.3895263671876	1072.644287109375	207.0173950195311	-580.8351440429689	1038.729614257812	192.5967559814452	-579.4968261718751	1036.263793945312	243.0106811523436	-585.5278320312501	976.4568481445312	213.7442932128905	-574.6836547851562	926.9144897460938	196.842071533203	-567.012451171875	924.6123657226562	247.6013641357421	-582.8313598632812	865.6494140625	221.7526855468749	-533.8440551757812	658.6964111328125	22.4839038848876	-584.6055908203125	612.5752563476562	64.11308288574207	-545.3974609375	600.3070678710938	36.44762420654287	-674.1151733398438	367.7546997070312	23.79861259460437	-749.2845458984375	353.5457763671874	45.02985763549791	-711.5075073242188	320.5688171386718	36.67361831665026	-868.3045654296875	238.2764282226562	137.450485229492	-793.4089965820312	47.83280944824214	146.5457305908202	-828.7897338867188	60.65122222900386	45.20448303222641	-393.0126342773439	656.746337890625	399.5222778320312	-317.8930053710939	630.194091796875	404.7333984374999	-360.2480773925782	605.9705200195312	390.5411071777343	-295.4402770996094	327.5718383789062	392.8296508789062	-248.7265472412111	264.7597961425781	387.9919738769531	-297.3049926757813	267.108154296875	379.5572509765624	-297.6760253906251	54.18646621704099	275.4638671874999	-84.95223999023443	55.04080200195312	277.010498046875	-132.2373809814454	36.57326889038085	377.982421875	-339.5856323242189	1308.593383789062	227.8222351074218	-322.120086669922	1166.44482421875	219.2237548828124	-427.4346313476563	1382.775146484375	55.67430496215812	-412.1738586425782	1239.706909179688	-53.26532745361336	-415.9409179687501	1179.237915039062	-79.14190673828132	-372.6175842285157	1187.082763671875	-53.91725921630866	-312.2228698730469	998.4120483398438	-109.9979782104493	-310.2642517089844	920.7150268554688	-95.21298980712896	-272.2295227050782	952.55419921875	-103.4467010498047	-197.283935546875	881.0742797851562	-92.18926239013676	-174.9074249267579	911.078369140625	-22.29016685485843	-433.7735290527345	1356.50927734375	395.7065429687499	-473.1721801757814	1207.746337890625	486.0456542968749	-458.4113159179689	1144.242553710938	496.6768493652343	-508.8035888671877	1154.179077148438	502.8725585937499	-506.0911560058595	934.6017456054688	537.5421142578124	-464.0639648437502	878.6712646484375	574.8320312499999	-501.6915893554689	871.7265625	543.4573364257811	-476.2906188964845	787.9157104492188	565.8143310546874	-428.8424682617189	767.5347290039062	502.5314025878906	
33	0.16	-275.7640075683595	1571.062866210938	246.8336181640624	-327.1906127929689	1594.492553710938	311.2095031738281	-318.4161376953127	1596.707153320312	174.0402374267578	-504.1343078613283	1411.96240234375	227.5401000976562	-563.2235717773439	1243.589111328125	215.1779174804686	-571.5859985351564	1203.766723632812	192.3984374999999	-576.4253540039064	1194.984497070312	241.9279327392577	-566.8130493164064	1139.287353515625	206.7117309570311	-542.1218261718751	1073.41943359375	207.7328643798827	-573.3821411132814	1039.747436523438	192.8120574951171	-572.2643432617189	1037.394409179688	243.2447662353514	-578.2391967773439	977.5275268554688	214.0821533203124	-567.2200317382812	927.1666870117188	197.2638244628905	-559.7718505859375	925.1917724609375	248.0816345214843	-575.2296142578125	866.0014038085938	222.4784545898436	-523.0488891601562	657.4725341796875	22.84224700927725	-573.0342407226562	610.43896484375	64.37178039550771	-533.8717651367188	598.9043579101562	36.35727691650381	-661.5452880859375	369.2237243652343	23.03280639648425	-736.7711791992188	356.2645263671874	44.93064498901354	-699.635498046875	322.6586303710937	36.14576721191393	-856.2072143554688	244.6283264160156	137.6231842041014	-788.994140625	50.22313690185542	146.3964233398436	-824.7777099609375	65.24017333984369	45.7469978332518	-386.0173339843751	657.682861328125	400.7931823730468	-311.0987243652345	630.77197265625	405.4559020996093	-353.5372924804689	606.7646484375	391.6423645019531	-291.0823974609376	327.9593811035156	393.3972473144531	-245.0288696289064	264.6073303222656	387.9309997558593	-293.7540588378907	267.4992065429688	380.0052185058593	-297.2871093750001	54.64625549316404	275.2609863281249	-84.13315582275396	53.56012344360351	276.7419128417969	-132.1024169921876	36.49786758422851	377.8749084472656	-332.4515991210939	1309.607055664062	228.9237060546874	-314.906219482422	1167.403930664062	220.3325958251953	-420.3993225097657	1383.710815429688	56.73391342163078	-405.6779785156251	1240.4130859375	-52.13525009155281	-409.6953735351563	1179.96630859375	-78.06910705566413	-366.3046875000001	1187.54443359375	-52.75301742553717	-307.5710449218751	998.249755859375	-108.8980789184571	-306.3439331054688	920.5294799804688	-94.19519042968756	-268.0156250000001	951.9714965820312	-102.589469909668	-193.7468719482422	879.69921875	-91.77495574951176	-170.7975769042969	909.2742919921875	-21.88582992553714	-426.6048278808595	1357.358642578125	396.7647094726562	-465.3432922363283	1208.367553710938	487.1436157226561	-450.2884826660158	1144.898803710938	497.5406799316406	-500.6441650390627	1154.632446289062	504.0225830078124	-497.2075195312502	935.0606689453125	538.2284545898436	-454.8943481445314	879.1852416992188	575.3062133789061	-492.6102600097658	872.17724609375	544.0579833984374	-466.930389404297	788.4139404296875	566.2368164062499	-419.7455139160158	768.1921997070312	502.7193298339843	
34	0.165	-268.7418518066408	1571.969848632812	247.8707885742187	-320.137420654297	1595.385009765625	312.2729492187499	-311.4281311035158	1597.611206054688	175.0986938476562	-497.102508544922	1412.762817382812	228.589630126953	-556.0437622070314	1244.346313476562	216.0166473388671	-564.3623046875001	1204.545043945312	193.1947937011718	-569.1948852539064	1195.721435546875	242.7205200195311	-559.5650024414064	1140.053833007812	207.4579772949218	-534.9040527343751	1074.23193359375	208.4877014160155	-566.0285644531251	1040.74365234375	193.0869598388671	-565.1154785156251	1038.500732421875	243.5364990234374	-571.0374145507814	978.5748291015625	214.476837158203	-559.8230590820312	927.46728515625	197.7661285400389	-552.5755004882812	925.8052978515625	248.6354217529296	-567.7415771484375	866.40966796875	223.2813720703124	-512.182861328125	656.3014526367188	23.17768859863272	-561.380126953125	608.3540649414062	64.57194519042959	-522.2499389648438	597.565185546875	36.24740600585928	-648.68408203125	370.7248535156249	22.27831459045398	-723.9584350585938	359.0092773437499	44.78622817993151	-687.4632568359375	324.7908325195312	35.62694168090808	-843.8115844726562	250.9241333007812	137.8276519775389	-783.9688110351562	52.83451080322261	146.1669158935545	-820.2067260742188	70.11902618408197	46.28359985351548	-379.1654663085939	658.5588989257812	402.0080871582031	-304.4954223632814	631.20068359375	406.0887451171874	-347.0144348144532	607.47265625	392.6636657714843	-287.0444335937501	328.275146484375	393.8083190917968	-241.6321258544923	264.4038696289062	387.8565979003906	-290.4685363769532	267.8306884765625	380.2952575683593	-296.9318542480469	55.05871582031248	275.0180969238281	-83.39748382568365	52.25660324096679	276.4951782226562	-132.0018615722657	36.51562118530273	377.761474609375	-325.3546142578126	1310.633056640625	229.9581909179687	-307.7599487304689	1168.36669921875	221.3827514648437	-413.4097290039063	1384.663940429688	57.72730255126945	-399.2510375976563	1241.12158203125	-51.0616760253907	-403.5151062011719	1180.690673828125	-77.03479003906257	-360.0653076171876	1188.016235351562	-51.63857650756842	-302.9987182617188	998.08154296875	-107.8153991699219	-302.5234985351563	920.3475341796875	-93.17604827880865	-263.9005126953126	951.375244140625	-101.7481079101563	-190.3392791748047	878.2923583984375	-91.38230895996097	-166.7945556640626	907.428466796875	-21.51775550842288	-419.4555969238282	1358.261596679688	397.7595214843749	-457.5327148437502	1209.062622070312	488.2184753417968	-442.1702270507814	1145.632446289062	498.3829040527343	-492.486297607422	1155.155151367188	505.1553955078124	-488.2742614746095	935.5873413085938	538.9345703124999	-445.6387023925783	879.7896118164062	575.7854614257811	-483.4538879394533	872.7019653320312	544.6776733398436	-457.4426269531252	789.0008544921875	566.6670532226561	-410.5375976562502	768.9523315429688	502.8998413085937	
